<mxfile host="app.diagrams.net" agent="Mozilla/5.0 (Windows NT 10.0; Win64; x64) AppleWebKit/537.36 (KHTML, like Gecko) Chrome/136.0.0.0 Safari/537.36" version="27.1.0">
  <diagram name="Halaman-1" id="H-HyP0iJYRiPGVs21w_W">
    <mxGraphModel dx="2127" dy="2404" grid="1" gridSize="10" guides="1" tooltips="1" connect="1" arrows="1" fold="1" page="1" pageScale="1" pageWidth="827" pageHeight="1169" math="0" shadow="0">
      <root>
        <mxCell id="0" />
        <mxCell id="1" parent="0" />
        <mxCell id="ujvuDtpJJzds6F-YBkRC-14" value="" style="edgeStyle=orthogonalEdgeStyle;rounded=0;orthogonalLoop=1;jettySize=auto;html=1;" parent="1" source="ujvuDtpJJzds6F-YBkRC-2" target="ujvuDtpJJzds6F-YBkRC-9" edge="1">
          <mxGeometry relative="1" as="geometry" />
        </mxCell>
        <mxCell id="ujvuDtpJJzds6F-YBkRC-15" style="edgeStyle=orthogonalEdgeStyle;rounded=0;orthogonalLoop=1;jettySize=auto;html=1;entryX=1;entryY=0.5;entryDx=0;entryDy=0;" parent="1" source="ujvuDtpJJzds6F-YBkRC-2" target="ujvuDtpJJzds6F-YBkRC-5" edge="1">
          <mxGeometry relative="1" as="geometry" />
        </mxCell>
        <mxCell id="ujvuDtpJJzds6F-YBkRC-16" style="edgeStyle=orthogonalEdgeStyle;rounded=0;orthogonalLoop=1;jettySize=auto;html=1;entryX=1;entryY=0.5;entryDx=0;entryDy=0;" parent="1" source="ujvuDtpJJzds6F-YBkRC-2" target="ujvuDtpJJzds6F-YBkRC-6" edge="1">
          <mxGeometry relative="1" as="geometry">
            <mxPoint x="-500" y="395.4999999999999" as="targetPoint" />
          </mxGeometry>
        </mxCell>
        <mxCell id="ujvuDtpJJzds6F-YBkRC-17" style="edgeStyle=orthogonalEdgeStyle;rounded=0;orthogonalLoop=1;jettySize=auto;html=1;entryX=1;entryY=0.5;entryDx=0;entryDy=0;" parent="1" source="ujvuDtpJJzds6F-YBkRC-2" target="ujvuDtpJJzds6F-YBkRC-8" edge="1">
          <mxGeometry relative="1" as="geometry" />
        </mxCell>
        <mxCell id="ujvuDtpJJzds6F-YBkRC-18" style="edgeStyle=orthogonalEdgeStyle;rounded=0;orthogonalLoop=1;jettySize=auto;html=1;entryX=1;entryY=0.5;entryDx=0;entryDy=0;" parent="1" source="ujvuDtpJJzds6F-YBkRC-2" target="ujvuDtpJJzds6F-YBkRC-7" edge="1">
          <mxGeometry relative="1" as="geometry" />
        </mxCell>
        <mxCell id="ujvuDtpJJzds6F-YBkRC-20" style="edgeStyle=orthogonalEdgeStyle;rounded=0;orthogonalLoop=1;jettySize=auto;html=1;entryX=0.5;entryY=1;entryDx=0;entryDy=0;endArrow=none;startFill=0;" parent="1" source="ujvuDtpJJzds6F-YBkRC-2" target="ujvuDtpJJzds6F-YBkRC-19" edge="1">
          <mxGeometry relative="1" as="geometry" />
        </mxCell>
        <mxCell id="ujvuDtpJJzds6F-YBkRC-21" style="edgeStyle=orthogonalEdgeStyle;rounded=0;orthogonalLoop=1;jettySize=auto;html=1;entryX=1;entryY=0.5;entryDx=0;entryDy=0;" parent="1" source="ujvuDtpJJzds6F-YBkRC-2" target="ujvuDtpJJzds6F-YBkRC-4" edge="1">
          <mxGeometry relative="1" as="geometry" />
        </mxCell>
        <mxCell id="ujvuDtpJJzds6F-YBkRC-22" style="edgeStyle=orthogonalEdgeStyle;rounded=0;orthogonalLoop=1;jettySize=auto;html=1;entryX=1;entryY=0.5;entryDx=0;entryDy=0;" parent="1" source="ujvuDtpJJzds6F-YBkRC-2" target="ujvuDtpJJzds6F-YBkRC-10" edge="1">
          <mxGeometry relative="1" as="geometry" />
        </mxCell>
        <mxCell id="ujvuDtpJJzds6F-YBkRC-24" style="edgeStyle=orthogonalEdgeStyle;rounded=0;orthogonalLoop=1;jettySize=auto;html=1;entryX=0;entryY=0.5;entryDx=0;entryDy=0;endArrow=none;startFill=0;exitX=1;exitY=0.25;exitDx=0;exitDy=0;startArrow=ERone;" parent="1" source="ujvuDtpJJzds6F-YBkRC-2" target="ujvuDtpJJzds6F-YBkRC-23" edge="1">
          <mxGeometry relative="1" as="geometry" />
        </mxCell>
        <mxCell id="vykRj-YafYfN-F7Vt39m-34" style="edgeStyle=orthogonalEdgeStyle;rounded=0;orthogonalLoop=1;jettySize=auto;html=1;entryX=0;entryY=0.5;entryDx=0;entryDy=0;endArrow=none;startFill=0;startArrow=ERone;" parent="1" source="ujvuDtpJJzds6F-YBkRC-2" target="vykRj-YafYfN-F7Vt39m-33" edge="1">
          <mxGeometry relative="1" as="geometry">
            <mxPoint x="-5" y="375" as="targetPoint" />
            <Array as="points">
              <mxPoint x="10" y="320" />
              <mxPoint x="10" y="375" />
              <mxPoint x="100" y="375" />
              <mxPoint x="100" y="450" />
            </Array>
          </mxGeometry>
        </mxCell>
        <mxCell id="vykRj-YafYfN-F7Vt39m-41" style="edgeStyle=orthogonalEdgeStyle;rounded=0;orthogonalLoop=1;jettySize=auto;html=1;entryX=0;entryY=0.5;entryDx=0;entryDy=0;endArrow=none;startFill=0;exitX=1;exitY=1;exitDx=0;exitDy=0;startArrow=ERone;" parent="1" source="ujvuDtpJJzds6F-YBkRC-2" target="vykRj-YafYfN-F7Vt39m-40" edge="1">
          <mxGeometry relative="1" as="geometry">
            <Array as="points">
              <mxPoint x="-400" y="336" />
              <mxPoint x="-120" y="336" />
              <mxPoint x="-120" y="725" />
            </Array>
          </mxGeometry>
        </mxCell>
        <mxCell id="vykRj-YafYfN-F7Vt39m-51" style="edgeStyle=orthogonalEdgeStyle;rounded=0;orthogonalLoop=1;jettySize=auto;html=1;entryX=0.5;entryY=1;entryDx=0;entryDy=0;endArrow=none;startFill=0;exitX=0.822;exitY=0.04;exitDx=0;exitDy=0;exitPerimeter=0;startArrow=ERone;" parent="1" source="ujvuDtpJJzds6F-YBkRC-2" target="vykRj-YafYfN-F7Vt39m-52" edge="1">
          <mxGeometry relative="1" as="geometry">
            <mxPoint x="-200" y="205.5" as="targetPoint" />
            <Array as="points">
              <mxPoint x="-436" y="270" />
              <mxPoint x="-375" y="270" />
            </Array>
          </mxGeometry>
        </mxCell>
        <mxCell id="vykRj-YafYfN-F7Vt39m-80" style="edgeStyle=orthogonalEdgeStyle;rounded=0;orthogonalLoop=1;jettySize=auto;html=1;entryX=0.5;entryY=0;entryDx=0;entryDy=0;endArrow=none;startFill=0;startArrow=ERone;" parent="1" source="ujvuDtpJJzds6F-YBkRC-2" target="vykRj-YafYfN-F7Vt39m-79" edge="1">
          <mxGeometry relative="1" as="geometry" />
        </mxCell>
        <mxCell id="ujvuDtpJJzds6F-YBkRC-2" value="users" style="whiteSpace=wrap;html=1;align=center;" parent="1" vertex="1">
          <mxGeometry x="-510" y="295.5" width="90" height="40" as="geometry" />
        </mxCell>
        <mxCell id="ujvuDtpJJzds6F-YBkRC-4" value="username" style="ellipse;whiteSpace=wrap;html=1;align=center;" parent="1" vertex="1">
          <mxGeometry x="-620" y="225.5" width="70" height="30" as="geometry" />
        </mxCell>
        <mxCell id="ujvuDtpJJzds6F-YBkRC-5" value="password" style="ellipse;whiteSpace=wrap;html=1;align=center;" parent="1" vertex="1">
          <mxGeometry x="-620" y="335.5" width="70" height="30" as="geometry" />
        </mxCell>
        <mxCell id="ujvuDtpJJzds6F-YBkRC-6" value="email" style="ellipse;whiteSpace=wrap;html=1;align=center;" parent="1" vertex="1">
          <mxGeometry x="-620" y="145.5" width="70" height="30" as="geometry" />
        </mxCell>
        <mxCell id="ujvuDtpJJzds6F-YBkRC-7" value="profile_picture" style="ellipse;whiteSpace=wrap;html=1;align=center;" parent="1" vertex="1">
          <mxGeometry x="-710" y="245.5" width="90" height="40" as="geometry" />
        </mxCell>
        <mxCell id="ujvuDtpJJzds6F-YBkRC-8" value="jenis_kelamin" style="ellipse;whiteSpace=wrap;html=1;align=center;" parent="1" vertex="1">
          <mxGeometry x="-640" y="375.5" width="90" height="40" as="geometry" />
        </mxCell>
        <mxCell id="ujvuDtpJJzds6F-YBkRC-9" value="role" style="ellipse;whiteSpace=wrap;html=1;align=center;" parent="1" vertex="1">
          <mxGeometry x="-700" y="305.5" width="90" height="40" as="geometry" />
        </mxCell>
        <mxCell id="ujvuDtpJJzds6F-YBkRC-10" value="created_at" style="ellipse;whiteSpace=wrap;html=1;align=center;" parent="1" vertex="1">
          <mxGeometry x="-640" y="185.5" width="90" height="40" as="geometry" />
        </mxCell>
        <mxCell id="ujvuDtpJJzds6F-YBkRC-19" value="UserID" style="ellipse;whiteSpace=wrap;html=1;align=center;fontStyle=4;" parent="1" vertex="1">
          <mxGeometry x="-505" y="225.5" width="80" height="40" as="geometry" />
        </mxCell>
        <mxCell id="ujvuDtpJJzds6F-YBkRC-26" style="edgeStyle=orthogonalEdgeStyle;rounded=0;orthogonalLoop=1;jettySize=auto;html=1;endArrow=ERmany;startFill=0;endFill=0;" parent="1" source="ujvuDtpJJzds6F-YBkRC-23" target="ujvuDtpJJzds6F-YBkRC-25" edge="1">
          <mxGeometry relative="1" as="geometry" />
        </mxCell>
        <mxCell id="ujvuDtpJJzds6F-YBkRC-23" value="membuat" style="shape=rhombus;perimeter=rhombusPerimeter;whiteSpace=wrap;html=1;align=center;" parent="1" vertex="1">
          <mxGeometry x="155" y="255" width="90" height="50" as="geometry" />
        </mxCell>
        <mxCell id="ujvuDtpJJzds6F-YBkRC-33" style="edgeStyle=orthogonalEdgeStyle;rounded=0;orthogonalLoop=1;jettySize=auto;html=1;entryX=1;entryY=0.5;entryDx=0;entryDy=0;" parent="1" source="ujvuDtpJJzds6F-YBkRC-25" target="ujvuDtpJJzds6F-YBkRC-28" edge="1">
          <mxGeometry relative="1" as="geometry" />
        </mxCell>
        <mxCell id="ujvuDtpJJzds6F-YBkRC-34" style="edgeStyle=orthogonalEdgeStyle;rounded=0;orthogonalLoop=1;jettySize=auto;html=1;entryX=1;entryY=0.5;entryDx=0;entryDy=0;" parent="1" source="ujvuDtpJJzds6F-YBkRC-25" target="ujvuDtpJJzds6F-YBkRC-40" edge="1">
          <mxGeometry relative="1" as="geometry">
            <mxPoint x="380" y="150" as="targetPoint" />
          </mxGeometry>
        </mxCell>
        <mxCell id="ujvuDtpJJzds6F-YBkRC-35" style="edgeStyle=orthogonalEdgeStyle;rounded=0;orthogonalLoop=1;jettySize=auto;html=1;entryX=0;entryY=0.5;entryDx=0;entryDy=0;" parent="1" source="ujvuDtpJJzds6F-YBkRC-25" target="ujvuDtpJJzds6F-YBkRC-30" edge="1">
          <mxGeometry relative="1" as="geometry" />
        </mxCell>
        <mxCell id="ujvuDtpJJzds6F-YBkRC-36" style="edgeStyle=orthogonalEdgeStyle;rounded=0;orthogonalLoop=1;jettySize=auto;html=1;entryX=0;entryY=0.5;entryDx=0;entryDy=0;" parent="1" source="ujvuDtpJJzds6F-YBkRC-25" target="ujvuDtpJJzds6F-YBkRC-31" edge="1">
          <mxGeometry relative="1" as="geometry" />
        </mxCell>
        <mxCell id="ujvuDtpJJzds6F-YBkRC-37" style="edgeStyle=orthogonalEdgeStyle;rounded=0;orthogonalLoop=1;jettySize=auto;html=1;entryX=0;entryY=0.5;entryDx=0;entryDy=0;" parent="1" source="ujvuDtpJJzds6F-YBkRC-25" target="ujvuDtpJJzds6F-YBkRC-27" edge="1">
          <mxGeometry relative="1" as="geometry" />
        </mxCell>
        <mxCell id="ujvuDtpJJzds6F-YBkRC-39" style="edgeStyle=orthogonalEdgeStyle;rounded=0;orthogonalLoop=1;jettySize=auto;html=1;entryX=0;entryY=0.5;entryDx=0;entryDy=0;" parent="1" source="ujvuDtpJJzds6F-YBkRC-25" target="ujvuDtpJJzds6F-YBkRC-32" edge="1">
          <mxGeometry relative="1" as="geometry" />
        </mxCell>
        <mxCell id="vykRj-YafYfN-F7Vt39m-44" style="edgeStyle=orthogonalEdgeStyle;rounded=0;orthogonalLoop=1;jettySize=auto;html=1;endArrow=none;startFill=0;startArrow=ERone;" parent="1" source="ujvuDtpJJzds6F-YBkRC-25" target="vykRj-YafYfN-F7Vt39m-39" edge="1">
          <mxGeometry relative="1" as="geometry">
            <Array as="points">
              <mxPoint x="425" y="310" />
              <mxPoint x="355" y="310" />
            </Array>
          </mxGeometry>
        </mxCell>
        <mxCell id="vykRj-YafYfN-F7Vt39m-45" style="edgeStyle=orthogonalEdgeStyle;rounded=0;orthogonalLoop=1;jettySize=auto;html=1;entryX=0.5;entryY=0;entryDx=0;entryDy=0;endArrow=none;startFill=0;endFill=0;startArrow=ERone;" parent="1" source="ujvuDtpJJzds6F-YBkRC-25" target="vykRj-YafYfN-F7Vt39m-43" edge="1">
          <mxGeometry relative="1" as="geometry" />
        </mxCell>
        <mxCell id="vykRj-YafYfN-F7Vt39m-57" style="edgeStyle=orthogonalEdgeStyle;rounded=0;orthogonalLoop=1;jettySize=auto;html=1;endArrow=none;startFill=0;entryX=0.5;entryY=1;entryDx=0;entryDy=0;startArrow=ERone;" parent="1" source="ujvuDtpJJzds6F-YBkRC-25" target="vykRj-YafYfN-F7Vt39m-56" edge="1">
          <mxGeometry relative="1" as="geometry">
            <mxPoint x="330" y="250" as="targetPoint" />
            <Array as="points">
              <mxPoint x="331" y="260" />
              <mxPoint x="331" y="250" />
              <mxPoint x="265" y="250" />
            </Array>
          </mxGeometry>
        </mxCell>
        <mxCell id="ujvuDtpJJzds6F-YBkRC-25" value="post" style="whiteSpace=wrap;html=1;align=center;" parent="1" vertex="1">
          <mxGeometry x="380" y="260" width="90" height="40" as="geometry" />
        </mxCell>
        <mxCell id="ujvuDtpJJzds6F-YBkRC-27" value="post_name" style="ellipse;whiteSpace=wrap;html=1;align=center;" parent="1" vertex="1">
          <mxGeometry x="450" y="80" width="100" height="40" as="geometry" />
        </mxCell>
        <mxCell id="ujvuDtpJJzds6F-YBkRC-28" value="PostID" style="ellipse;whiteSpace=wrap;html=1;align=center;fontStyle=4;" parent="1" vertex="1">
          <mxGeometry x="280" y="175" width="100" height="40" as="geometry" />
        </mxCell>
        <mxCell id="ujvuDtpJJzds6F-YBkRC-30" value="image" style="ellipse;whiteSpace=wrap;html=1;align=center;" parent="1" vertex="1">
          <mxGeometry x="450" y="175" width="100" height="40" as="geometry" />
        </mxCell>
        <mxCell id="ujvuDtpJJzds6F-YBkRC-31" value="description" style="ellipse;whiteSpace=wrap;html=1;align=center;" parent="1" vertex="1">
          <mxGeometry x="450" y="130" width="100" height="40" as="geometry" />
        </mxCell>
        <mxCell id="ujvuDtpJJzds6F-YBkRC-32" value="created_at" style="ellipse;whiteSpace=wrap;html=1;align=center;" parent="1" vertex="1">
          <mxGeometry x="450" y="30" width="100" height="40" as="geometry" />
        </mxCell>
        <mxCell id="ujvuDtpJJzds6F-YBkRC-40" value="UserID" style="ellipse;whiteSpace=wrap;html=1;align=center;fontStyle=4;" parent="1" vertex="1">
          <mxGeometry x="280" y="120" width="100" height="40" as="geometry" />
        </mxCell>
        <mxCell id="vykRj-YafYfN-F7Vt39m-8" style="edgeStyle=orthogonalEdgeStyle;rounded=0;orthogonalLoop=1;jettySize=auto;html=1;entryX=1;entryY=0.5;entryDx=0;entryDy=0;exitX=0.5;exitY=1;exitDx=0;exitDy=0;" parent="1" source="vykRj-YafYfN-F7Vt39m-28" target="vykRj-YafYfN-F7Vt39m-5" edge="1">
          <mxGeometry relative="1" as="geometry">
            <mxPoint x="1035" y="235" as="sourcePoint" />
          </mxGeometry>
        </mxCell>
        <mxCell id="vykRj-YafYfN-F7Vt39m-9" style="edgeStyle=orthogonalEdgeStyle;rounded=0;orthogonalLoop=1;jettySize=auto;html=1;entryX=1;entryY=0.5;entryDx=0;entryDy=0;exitX=0.5;exitY=1;exitDx=0;exitDy=0;" parent="1" source="vykRj-YafYfN-F7Vt39m-28" target="vykRj-YafYfN-F7Vt39m-6" edge="1">
          <mxGeometry relative="1" as="geometry">
            <mxPoint x="1035" y="235" as="sourcePoint" />
          </mxGeometry>
        </mxCell>
        <mxCell id="vykRj-YafYfN-F7Vt39m-10" style="edgeStyle=orthogonalEdgeStyle;rounded=0;orthogonalLoop=1;jettySize=auto;html=1;entryX=1;entryY=0.5;entryDx=0;entryDy=0;exitX=0.5;exitY=1;exitDx=0;exitDy=0;" parent="1" source="vykRj-YafYfN-F7Vt39m-28" target="vykRj-YafYfN-F7Vt39m-7" edge="1">
          <mxGeometry relative="1" as="geometry">
            <mxPoint x="1035" y="235" as="sourcePoint" />
          </mxGeometry>
        </mxCell>
        <mxCell id="vykRj-YafYfN-F7Vt39m-18" style="edgeStyle=orthogonalEdgeStyle;rounded=0;orthogonalLoop=1;jettySize=auto;html=1;entryX=0;entryY=0.5;entryDx=0;entryDy=0;exitX=0.5;exitY=1;exitDx=0;exitDy=0;" parent="1" source="vykRj-YafYfN-F7Vt39m-28" target="vykRj-YafYfN-F7Vt39m-17" edge="1">
          <mxGeometry relative="1" as="geometry">
            <mxPoint x="1035" y="235" as="sourcePoint" />
          </mxGeometry>
        </mxCell>
        <mxCell id="vykRj-YafYfN-F7Vt39m-5" value="LikeID" style="ellipse;whiteSpace=wrap;html=1;align=center;fontStyle=4;" parent="1" vertex="1">
          <mxGeometry x="920" y="265" width="80" height="30" as="geometry" />
        </mxCell>
        <mxCell id="vykRj-YafYfN-F7Vt39m-6" value="UserID" style="ellipse;whiteSpace=wrap;html=1;align=center;fontStyle=4;" parent="1" vertex="1">
          <mxGeometry x="920" y="305" width="80" height="30" as="geometry" />
        </mxCell>
        <mxCell id="vykRj-YafYfN-F7Vt39m-7" value="PostID" style="ellipse;whiteSpace=wrap;html=1;align=center;fontStyle=4;" parent="1" vertex="1">
          <mxGeometry x="920" y="345" width="80" height="30" as="geometry" />
        </mxCell>
        <mxCell id="vykRj-YafYfN-F7Vt39m-19" style="edgeStyle=orthogonalEdgeStyle;rounded=0;orthogonalLoop=1;jettySize=auto;html=1;entryX=1;entryY=0.5;entryDx=0;entryDy=0;exitX=0.5;exitY=1;exitDx=0;exitDy=0;" parent="1" source="vykRj-YafYfN-F7Vt39m-31" target="vykRj-YafYfN-F7Vt39m-13" edge="1">
          <mxGeometry relative="1" as="geometry">
            <mxPoint x="355" y="480.5" as="sourcePoint" />
          </mxGeometry>
        </mxCell>
        <mxCell id="vykRj-YafYfN-F7Vt39m-20" style="edgeStyle=orthogonalEdgeStyle;rounded=0;orthogonalLoop=1;jettySize=auto;html=1;entryX=1;entryY=0.5;entryDx=0;entryDy=0;exitX=0.5;exitY=1;exitDx=0;exitDy=0;" parent="1" source="vykRj-YafYfN-F7Vt39m-31" target="vykRj-YafYfN-F7Vt39m-14" edge="1">
          <mxGeometry relative="1" as="geometry">
            <mxPoint x="355" y="480.5" as="sourcePoint" />
          </mxGeometry>
        </mxCell>
        <mxCell id="vykRj-YafYfN-F7Vt39m-21" style="edgeStyle=orthogonalEdgeStyle;rounded=0;orthogonalLoop=1;jettySize=auto;html=1;entryX=1;entryY=0.5;entryDx=0;entryDy=0;exitX=0.5;exitY=1;exitDx=0;exitDy=0;" parent="1" source="vykRj-YafYfN-F7Vt39m-31" target="vykRj-YafYfN-F7Vt39m-15" edge="1">
          <mxGeometry relative="1" as="geometry">
            <mxPoint x="355" y="480.5" as="sourcePoint" />
          </mxGeometry>
        </mxCell>
        <mxCell id="vykRj-YafYfN-F7Vt39m-22" style="edgeStyle=orthogonalEdgeStyle;rounded=0;orthogonalLoop=1;jettySize=auto;html=1;entryX=1;entryY=0.5;entryDx=0;entryDy=0;exitX=0.5;exitY=1;exitDx=0;exitDy=0;" parent="1" source="vykRj-YafYfN-F7Vt39m-31" target="vykRj-YafYfN-F7Vt39m-16" edge="1">
          <mxGeometry relative="1" as="geometry">
            <mxPoint x="355" y="480.5" as="sourcePoint" />
          </mxGeometry>
        </mxCell>
        <mxCell id="vykRj-YafYfN-F7Vt39m-25" style="edgeStyle=orthogonalEdgeStyle;rounded=0;orthogonalLoop=1;jettySize=auto;html=1;entryX=0;entryY=0.5;entryDx=0;entryDy=0;exitX=0.5;exitY=1;exitDx=0;exitDy=0;" parent="1" source="vykRj-YafYfN-F7Vt39m-31" target="vykRj-YafYfN-F7Vt39m-23" edge="1">
          <mxGeometry relative="1" as="geometry">
            <mxPoint x="355" y="480.5" as="sourcePoint" />
          </mxGeometry>
        </mxCell>
        <mxCell id="vykRj-YafYfN-F7Vt39m-26" style="edgeStyle=orthogonalEdgeStyle;rounded=0;orthogonalLoop=1;jettySize=auto;html=1;entryX=0;entryY=0.5;entryDx=0;entryDy=0;exitX=0.5;exitY=1;exitDx=0;exitDy=0;" parent="1" source="vykRj-YafYfN-F7Vt39m-31" target="vykRj-YafYfN-F7Vt39m-24" edge="1">
          <mxGeometry relative="1" as="geometry">
            <mxPoint x="355" y="480.5" as="sourcePoint" />
          </mxGeometry>
        </mxCell>
        <mxCell id="vykRj-YafYfN-F7Vt39m-13" value="LaporanID" style="ellipse;whiteSpace=wrap;html=1;align=center;fontStyle=4;" parent="1" vertex="1">
          <mxGeometry x="245" y="505.5" width="80" height="30" as="geometry" />
        </mxCell>
        <mxCell id="vykRj-YafYfN-F7Vt39m-14" value="PostID" style="ellipse;whiteSpace=wrap;html=1;align=center;fontStyle=4;" parent="1" vertex="1">
          <mxGeometry x="250" y="545.5" width="80" height="30" as="geometry" />
        </mxCell>
        <mxCell id="vykRj-YafYfN-F7Vt39m-15" value="UserID_pelapor" style="ellipse;whiteSpace=wrap;html=1;align=center;fontStyle=4;" parent="1" vertex="1">
          <mxGeometry x="225" y="585.5" width="110" height="40" as="geometry" />
        </mxCell>
        <mxCell id="vykRj-YafYfN-F7Vt39m-16" value="UserID_pelapor" style="ellipse;whiteSpace=wrap;html=1;align=center;fontStyle=4;" parent="1" vertex="1">
          <mxGeometry x="220" y="635.5" width="110" height="40" as="geometry" />
        </mxCell>
        <mxCell id="vykRj-YafYfN-F7Vt39m-17" value="tanggal" style="ellipse;whiteSpace=wrap;html=1;align=center;" parent="1" vertex="1">
          <mxGeometry x="1054" y="260" width="100" height="40" as="geometry" />
        </mxCell>
        <mxCell id="vykRj-YafYfN-F7Vt39m-23" value="isi_laporan" style="ellipse;whiteSpace=wrap;html=1;align=center;" parent="1" vertex="1">
          <mxGeometry x="380" y="505.5" width="100" height="40" as="geometry" />
        </mxCell>
        <mxCell id="vykRj-YafYfN-F7Vt39m-24" value="tanggal_waktu" style="ellipse;whiteSpace=wrap;html=1;align=center;" parent="1" vertex="1">
          <mxGeometry x="380" y="555.5" width="100" height="40" as="geometry" />
        </mxCell>
        <mxCell id="vykRj-YafYfN-F7Vt39m-28" value="like" style="whiteSpace=wrap;html=1;align=center;" parent="1" vertex="1">
          <mxGeometry x="985" y="185" width="100" height="40" as="geometry" />
        </mxCell>
        <mxCell id="vykRj-YafYfN-F7Vt39m-31" value="laporan_pelanggaran_postingan" style="whiteSpace=wrap;html=1;align=center;" parent="1" vertex="1">
          <mxGeometry x="265" y="430" width="180" height="40" as="geometry" />
        </mxCell>
        <mxCell id="vykRj-YafYfN-F7Vt39m-35" style="edgeStyle=orthogonalEdgeStyle;rounded=0;orthogonalLoop=1;jettySize=auto;html=1;entryX=0;entryY=0.5;entryDx=0;entryDy=0;endArrow=ERmany;startFill=0;endFill=0;" parent="1" source="vykRj-YafYfN-F7Vt39m-33" target="vykRj-YafYfN-F7Vt39m-31" edge="1">
          <mxGeometry relative="1" as="geometry" />
        </mxCell>
        <mxCell id="vykRj-YafYfN-F7Vt39m-33" value="Melakukan" style="shape=rhombus;perimeter=rhombusPerimeter;whiteSpace=wrap;html=1;align=center;" parent="1" vertex="1">
          <mxGeometry x="120" y="425" width="90" height="50" as="geometry" />
        </mxCell>
        <mxCell id="vykRj-YafYfN-F7Vt39m-46" style="edgeStyle=orthogonalEdgeStyle;rounded=0;orthogonalLoop=1;jettySize=auto;html=1;endArrow=ERmany;startFill=0;endFill=0;" parent="1" source="vykRj-YafYfN-F7Vt39m-39" target="vykRj-YafYfN-F7Vt39m-31" edge="1">
          <mxGeometry relative="1" as="geometry" />
        </mxCell>
        <mxCell id="vykRj-YafYfN-F7Vt39m-39" value="Memiliki" style="shape=rhombus;perimeter=rhombusPerimeter;whiteSpace=wrap;html=1;align=center;" parent="1" vertex="1">
          <mxGeometry x="310" y="330" width="90" height="60" as="geometry" />
        </mxCell>
        <mxCell id="vykRj-YafYfN-F7Vt39m-42" style="edgeStyle=orthogonalEdgeStyle;rounded=0;orthogonalLoop=1;jettySize=auto;html=1;entryX=1;entryY=0.5;entryDx=0;entryDy=0;endArrow=ERone;startFill=0;endFill=0;" parent="1" source="vykRj-YafYfN-F7Vt39m-40" target="vykRj-YafYfN-F7Vt39m-28" edge="1">
          <mxGeometry relative="1" as="geometry">
            <Array as="points">
              <mxPoint x="780" y="725" />
              <mxPoint x="780" y="430" />
              <mxPoint x="1170" y="430" />
              <mxPoint x="1170" y="205" />
            </Array>
          </mxGeometry>
        </mxCell>
        <mxCell id="vykRj-YafYfN-F7Vt39m-40" value="Melakukan" style="shape=rhombus;perimeter=rhombusPerimeter;whiteSpace=wrap;html=1;align=center;" parent="1" vertex="1">
          <mxGeometry x="180" y="700" width="90" height="50" as="geometry" />
        </mxCell>
        <mxCell id="vykRj-YafYfN-F7Vt39m-47" style="edgeStyle=orthogonalEdgeStyle;rounded=0;orthogonalLoop=1;jettySize=auto;html=1;entryX=0.5;entryY=0;entryDx=0;entryDy=0;endArrow=ERmany;startFill=0;endFill=0;" parent="1" source="vykRj-YafYfN-F7Vt39m-43" target="vykRj-YafYfN-F7Vt39m-28" edge="1">
          <mxGeometry relative="1" as="geometry" />
        </mxCell>
        <mxCell id="vykRj-YafYfN-F7Vt39m-43" value="Memiliki" style="shape=rhombus;perimeter=rhombusPerimeter;whiteSpace=wrap;html=1;align=center;" parent="1" vertex="1">
          <mxGeometry x="990" y="95" width="90" height="60" as="geometry" />
        </mxCell>
        <mxCell id="vykRj-YafYfN-F7Vt39m-73" style="edgeStyle=orthogonalEdgeStyle;rounded=0;orthogonalLoop=1;jettySize=auto;html=1;entryX=1;entryY=0.5;entryDx=0;entryDy=0;" parent="1" source="vykRj-YafYfN-F7Vt39m-48" target="vykRj-YafYfN-F7Vt39m-71" edge="1">
          <mxGeometry relative="1" as="geometry" />
        </mxCell>
        <mxCell id="vykRj-YafYfN-F7Vt39m-74" style="edgeStyle=orthogonalEdgeStyle;rounded=0;orthogonalLoop=1;jettySize=auto;html=1;entryX=1;entryY=0.5;entryDx=0;entryDy=0;" parent="1" source="vykRj-YafYfN-F7Vt39m-48" target="vykRj-YafYfN-F7Vt39m-72" edge="1">
          <mxGeometry relative="1" as="geometry" />
        </mxCell>
        <mxCell id="vykRj-YafYfN-F7Vt39m-78" style="edgeStyle=orthogonalEdgeStyle;rounded=0;orthogonalLoop=1;jettySize=auto;html=1;entryX=0;entryY=0.5;entryDx=0;entryDy=0;" parent="1" source="vykRj-YafYfN-F7Vt39m-48" target="vykRj-YafYfN-F7Vt39m-76" edge="1">
          <mxGeometry relative="1" as="geometry">
            <Array as="points">
              <mxPoint x="-465" y="571" />
            </Array>
          </mxGeometry>
        </mxCell>
        <mxCell id="vykRj-YafYfN-F7Vt39m-48" value="history" style="whiteSpace=wrap;html=1;align=center;" parent="1" vertex="1">
          <mxGeometry x="-510" y="425.5" width="90" height="40" as="geometry" />
        </mxCell>
        <mxCell id="vykRj-YafYfN-F7Vt39m-64" style="edgeStyle=orthogonalEdgeStyle;rounded=0;orthogonalLoop=1;jettySize=auto;html=1;entryX=1;entryY=0.5;entryDx=0;entryDy=0;" parent="1" source="vykRj-YafYfN-F7Vt39m-49" target="vykRj-YafYfN-F7Vt39m-60" edge="1">
          <mxGeometry relative="1" as="geometry" />
        </mxCell>
        <mxCell id="vykRj-YafYfN-F7Vt39m-65" style="edgeStyle=orthogonalEdgeStyle;rounded=0;orthogonalLoop=1;jettySize=auto;html=1;entryX=1;entryY=0.5;entryDx=0;entryDy=0;" parent="1" source="vykRj-YafYfN-F7Vt39m-49" target="vykRj-YafYfN-F7Vt39m-61" edge="1">
          <mxGeometry relative="1" as="geometry" />
        </mxCell>
        <mxCell id="vykRj-YafYfN-F7Vt39m-66" style="edgeStyle=orthogonalEdgeStyle;rounded=0;orthogonalLoop=1;jettySize=auto;html=1;entryX=1;entryY=0.5;entryDx=0;entryDy=0;" parent="1" source="vykRj-YafYfN-F7Vt39m-49" target="vykRj-YafYfN-F7Vt39m-62" edge="1">
          <mxGeometry relative="1" as="geometry" />
        </mxCell>
        <mxCell id="vykRj-YafYfN-F7Vt39m-69" style="edgeStyle=orthogonalEdgeStyle;rounded=0;orthogonalLoop=1;jettySize=auto;html=1;entryX=0;entryY=0.5;entryDx=0;entryDy=0;" parent="1" source="vykRj-YafYfN-F7Vt39m-49" target="vykRj-YafYfN-F7Vt39m-67" edge="1">
          <mxGeometry relative="1" as="geometry">
            <Array as="points">
              <mxPoint x="165" y="80" />
            </Array>
          </mxGeometry>
        </mxCell>
        <mxCell id="vykRj-YafYfN-F7Vt39m-70" style="edgeStyle=orthogonalEdgeStyle;rounded=0;orthogonalLoop=1;jettySize=auto;html=1;entryX=0;entryY=0.5;entryDx=0;entryDy=0;" parent="1" source="vykRj-YafYfN-F7Vt39m-49" target="vykRj-YafYfN-F7Vt39m-68" edge="1">
          <mxGeometry relative="1" as="geometry">
            <Array as="points">
              <mxPoint x="165" y="30" />
            </Array>
          </mxGeometry>
        </mxCell>
        <mxCell id="vykRj-YafYfN-F7Vt39m-49" value="komentar" style="whiteSpace=wrap;html=1;align=center;" parent="1" vertex="1">
          <mxGeometry x="120" y="160" width="90" height="40" as="geometry" />
        </mxCell>
        <mxCell id="vykRj-YafYfN-F7Vt39m-53" style="edgeStyle=orthogonalEdgeStyle;rounded=0;orthogonalLoop=1;jettySize=auto;html=1;entryX=0;entryY=0.5;entryDx=0;entryDy=0;endArrow=ERmany;startFill=0;endFill=0;" parent="1" source="vykRj-YafYfN-F7Vt39m-52" target="vykRj-YafYfN-F7Vt39m-49" edge="1">
          <mxGeometry relative="1" as="geometry" />
        </mxCell>
        <mxCell id="vykRj-YafYfN-F7Vt39m-52" value="membuat" style="shape=rhombus;perimeter=rhombusPerimeter;whiteSpace=wrap;html=1;align=center;" parent="1" vertex="1">
          <mxGeometry x="-420" y="190.5" width="90" height="50" as="geometry" />
        </mxCell>
        <mxCell id="vykRj-YafYfN-F7Vt39m-56" value="Mempunyai" style="shape=rhombus;perimeter=rhombusPerimeter;whiteSpace=wrap;html=1;align=center;" parent="1" vertex="1">
          <mxGeometry x="220" y="210" width="90" height="50" as="geometry" />
        </mxCell>
        <mxCell id="vykRj-YafYfN-F7Vt39m-60" value="KomentarID" style="ellipse;whiteSpace=wrap;html=1;align=center;fontStyle=4;" parent="1" vertex="1">
          <mxGeometry x="40" y="60" width="100" height="40" as="geometry" />
        </mxCell>
        <mxCell id="vykRj-YafYfN-F7Vt39m-61" value="UserID" style="ellipse;whiteSpace=wrap;html=1;align=center;fontStyle=4;" parent="1" vertex="1">
          <mxGeometry x="40" y="10" width="100" height="40" as="geometry" />
        </mxCell>
        <mxCell id="vykRj-YafYfN-F7Vt39m-62" value="PostID" style="ellipse;whiteSpace=wrap;html=1;align=center;fontStyle=4;" parent="1" vertex="1">
          <mxGeometry x="40" y="-50" width="100" height="40" as="geometry" />
        </mxCell>
        <mxCell id="vykRj-YafYfN-F7Vt39m-67" value="tanggal" style="ellipse;whiteSpace=wrap;html=1;align=center;" parent="1" vertex="1">
          <mxGeometry x="190" y="60" width="100" height="40" as="geometry" />
        </mxCell>
        <mxCell id="vykRj-YafYfN-F7Vt39m-68" value="isi_komentar" style="ellipse;whiteSpace=wrap;html=1;align=center;" parent="1" vertex="1">
          <mxGeometry x="190" y="10" width="100" height="40" as="geometry" />
        </mxCell>
        <mxCell id="vykRj-YafYfN-F7Vt39m-71" value="HistoryID" style="ellipse;whiteSpace=wrap;html=1;align=center;fontStyle=4;" parent="1" vertex="1">
          <mxGeometry x="-600" y="501" width="110" height="40" as="geometry" />
        </mxCell>
        <mxCell id="vykRj-YafYfN-F7Vt39m-72" value="UserID" style="ellipse;whiteSpace=wrap;html=1;align=center;fontStyle=4;" parent="1" vertex="1">
          <mxGeometry x="-600" y="555.5" width="110" height="40" as="geometry" />
        </mxCell>
        <mxCell id="vykRj-YafYfN-F7Vt39m-75" value="aksi" style="ellipse;whiteSpace=wrap;html=1;align=center;" parent="1" vertex="1">
          <mxGeometry x="-450" y="501" width="100" height="40" as="geometry" />
        </mxCell>
        <mxCell id="vykRj-YafYfN-F7Vt39m-76" value="tanggal" style="ellipse;whiteSpace=wrap;html=1;align=center;" parent="1" vertex="1">
          <mxGeometry x="-450" y="551" width="100" height="40" as="geometry" />
        </mxCell>
        <mxCell id="vykRj-YafYfN-F7Vt39m-77" style="edgeStyle=orthogonalEdgeStyle;rounded=0;orthogonalLoop=1;jettySize=auto;html=1;entryX=0;entryY=0.5;entryDx=0;entryDy=0;" parent="1" source="vykRj-YafYfN-F7Vt39m-48" target="vykRj-YafYfN-F7Vt39m-75" edge="1">
          <mxGeometry relative="1" as="geometry">
            <Array as="points">
              <mxPoint x="-465" y="521" />
            </Array>
          </mxGeometry>
        </mxCell>
        <mxCell id="vykRj-YafYfN-F7Vt39m-84" style="edgeStyle=orthogonalEdgeStyle;rounded=0;orthogonalLoop=1;jettySize=auto;html=1;endArrow=ERmany;startFill=0;endFill=0;" parent="1" source="vykRj-YafYfN-F7Vt39m-79" target="vykRj-YafYfN-F7Vt39m-48" edge="1">
          <mxGeometry relative="1" as="geometry" />
        </mxCell>
        <mxCell id="vykRj-YafYfN-F7Vt39m-79" value="Memiliki" style="shape=rhombus;perimeter=rhombusPerimeter;whiteSpace=wrap;html=1;align=center;" parent="1" vertex="1">
          <mxGeometry x="-510" y="355.5" width="90" height="50" as="geometry" />
        </mxCell>
        <mxCell id="meRft-N3tK1-ZXzomzwZ-1" value="" style="edgeStyle=entityRelationEdgeStyle;fontSize=12;html=1;endArrow=ERmany;endFill=0;rounded=0;entryX=1;entryY=0.5;entryDx=0;entryDy=0;exitX=0.5;exitY=0;exitDx=0;exitDy=0;" parent="1" source="vykRj-YafYfN-F7Vt39m-56" target="vykRj-YafYfN-F7Vt39m-49" edge="1">
          <mxGeometry width="100" height="100" relative="1" as="geometry">
            <mxPoint x="210" y="310" as="sourcePoint" />
            <mxPoint x="310" y="210" as="targetPoint" />
          </mxGeometry>
        </mxCell>
      </root>
    </mxGraphModel>
  </diagram>
</mxfile>
